<?xml version="1.0" standalone="no"?>
<!DOCTYPE svg PUBLIC "-//W3C//DTD SVG 20010904//EN"
 "http://www.w3.org/TR/2001/REC-SVG-20010904/DTD/svg10.dtd">
<svg version="1.0" xmlns="http://www.w3.org/2000/svg"
 width="2000.000000pt" height="2000.000000pt" viewBox="0 0 2000.000000 2000.000000"
 preserveAspectRatio="xMidYMid meet">
<metadata>
Created by potrace 1.14, written by Peter Selinger 2001-2017
</metadata>
<g transform="translate(0.000000,2000.000000) scale(0.100000,-0.100000)"
fill="#000000" stroke="none">
<path d="M9207 15603 c-1 0 -77 -4 -170 -8 -92 -3 -175 -8 -185 -9 -9 -2 -52
-7 -94 -10 -42 -4 -85 -8 -95 -10 -17 -3 -68 -11 -153 -22 -33 -5 -105 -17
-175 -30 -27 -5 -225 -48 -267 -59 -173 -42 -503 -146 -558 -175 -14 -7 -27
-13 -30 -13 -37 3 -506 -217 -690 -324 -543 -316 -1040 -739 -1407 -1198 -60
-76 -88 -112 -108 -139 -11 -16 -34 -47 -52 -70 -109 -146 -282 -426 -383
-620 -73 -139 -185 -380 -196 -421 -1 -5 -14 -39 -29 -74 -23 -55 -104 -276
-107 -291 0 -3 -2 -9 -4 -15 -38 -118 -102 -366 -128 -500 -9 -44 -18 -91 -21
-105 -3 -14 -12 -70 -20 -125 -9 -55 -17 -111 -20 -125 -5 -32 -16 -135 -20
-180 -16 -187 -19 -277 -19 -480 0 -129 3 -284 8 -345 7 -107 9 -122 20 -215
17 -128 16 -141 -2 -136 -18 6 -180 40 -242 51 -47 9 -72 12 -160 20 -41 4
-86 9 -100 11 -39 5 -360 4 -410 -1 -189 -19 -226 -24 -355 -51 -185 -38 -305
-74 -475 -142 -821 -327 -1454 -1050 -1669 -1907 -83 -331 -108 -722 -66
-1029 19 -141 32 -216 47 -271 5 -22 12 -49 14 -61 7 -40 62 -220 92 -299 53
-144 105 -256 202 -430 23 -43 121 -197 130 -205 3 -3 30 -39 60 -80 148 -202
381 -429 608 -593 296 -213 702 -392 1037 -457 33 -6 78 -15 100 -20 22 -5 67
-12 100 -15 33 -4 74 -9 90 -11 47 -6 235 -17 285 -16 25 0 92 1 150 1 58 1
2677 1 5820 0 3143 0 5726 0 5740 1 14 1 106 1 205 1 99 -1 209 1 245 4 110 7
194 15 220 20 14 2 46 7 72 10 130 15 346 63 548 120 55 15 260 88 335 120 80
33 346 161 385 185 8 5 58 35 110 66 211 125 457 312 630 478 100 97 236 242
296 317 32 41 61 76 64 79 18 16 156 208 195 271 243 393 376 697 480 1099 7
26 37 164 41 190 3 14 9 48 14 75 11 62 18 106 26 170 3 28 7 61 10 75 22 140
22 663 -1 780 -3 14 -7 45 -10 70 -10 99 -22 164 -71 400 -17 84 -116 400
-148 475 -8 17 -33 75 -56 130 -74 174 -202 410 -313 574 -236 352 -485 611
-893 930 -37 30 -262 175 -329 213 -356 203 -731 343 -1120 418 -27 6 -61 12
-75 15 -13 3 -42 7 -65 10 -22 3 -51 8 -65 10 -14 2 -52 7 -85 11 -33 3 -73 8
-90 11 -58 9 -531 11 -620 2 -139 -13 -226 -24 -345 -44 -178 -31 -348 -74
-531 -135 -82 -27 -153 -50 -158 -50 -5 0 -11 19 -15 43 -24 153 -99 437 -173
657 -107 317 -220 570 -403 895 -139 248 -379 582 -585 815 -144 163 -389 401
-535 520 -30 25 -61 51 -68 58 -20 18 -164 128 -247 187 -329 237 -763 469
-1123 600 -53 20 -106 40 -117 45 -21 10 -270 89 -295 95 -8 1 -35 8 -60 15
-25 7 -56 14 -69 17 -14 2 -28 6 -32 9 -4 2 -27 8 -51 13 -24 5 -99 20 -168
34 -69 14 -143 28 -165 32 -22 3 -65 10 -95 15 -30 5 -82 12 -115 15 -33 3
-80 8 -105 11 -68 9 -100 12 -281 19 -184 8 -290 11 -292 8z m536 -417 c75 -4
143 -9 150 -11 6 -2 39 -6 72 -9 33 -4 69 -8 80 -10 11 -2 54 -9 95 -16 41 -7
122 -23 180 -36 58 -14 114 -27 126 -29 127 -28 465 -155 636 -241 907 -450
1570 -1259 1829 -2231 32 -119 38 -145 43 -178 2 -11 10 -58 19 -105 9 -47 19
-110 22 -140 4 -30 9 -62 10 -70 25 -137 25 -675 0 -800 -3 -14 -8 -50 -11
-80 -12 -126 -83 -437 -133 -590 -27 -82 -90 -249 -111 -295 -127 -281 -211
-430 -355 -634 -313 -442 -690 -783 -1156 -1044 -169 -94 -289 -149 -529 -240
-62 -23 -326 -102 -373 -111 -12 -2 -69 -13 -127 -24 -58 -11 -125 -23 -150
-27 -25 -3 -56 -8 -70 -10 -30 -5 -149 -17 -205 -21 -65 -4 -405 -5 -465 0
-78 6 -190 17 -220 21 -33 5 -170 26 -195 30 -17 3 -140 30 -185 40 -268 62
-613 199 -880 349 -587 329 -1069 828 -1387 1433 -125 240 -265 622 -309 848
-2 11 -8 43 -14 70 -12 63 -16 85 -30 182 -6 43 -13 92 -15 108 -24 161 -24
657 -1 780 2 11 7 47 11 80 4 32 9 68 11 79 2 11 6 36 9 56 7 47 13 78 19 98
3 9 8 33 11 52 15 91 119 438 155 515 5 11 21 49 35 84 76 184 220 448 342
624 74 106 215 286 269 344 207 218 279 284 496 458 18 15 203 143 234 162
240 151 450 253 709 345 128 45 389 119 475 133 19 4 71 12 115 20 44 8 107
17 140 20 33 4 76 8 95 11 19 2 94 7 165 10 72 4 131 7 132 8 2 1 71 -1 236
-8z"/>
<path d="M8569 13346 c-105 -43 -154 -88 -202 -186 l-32 -65 -3 -1365 -3
-1365 22 -67 c58 -183 254 -288 443 -237 22 6 72 29 110 51 39 22 96 54 126
71 30 16 62 36 71 43 8 8 18 14 22 14 3 0 30 14 59 31 29 18 71 42 93 54 22
13 166 96 320 185 154 89 298 173 320 185 22 13 139 80 260 150 121 70 234
135 250 145 776 446 792 457 838 545 57 112 55 240 -5 357 -19 36 -121 138
-138 138 -4 0 -49 25 -99 55 -51 30 -94 55 -96 55 -2 0 -45 25 -95 55 -50 30
-92 55 -94 55 -2 0 -76 43 -165 95 -90 52 -165 95 -167 95 -2 0 -28 16 -58 35
-30 19 -57 35 -60 35 -2 0 -40 21 -83 46 -43 26 -91 55 -108 64 -16 9 -118 68
-225 130 -107 62 -253 146 -325 187 -71 42 -159 92 -195 113 -393 228 -502
289 -544 303 -71 24 -169 22 -237 -7z"/>
</g>
</svg>
