<svg id="Layer_1" data-name="Layer 1" xmlns="http://www.w3.org/2000/svg" viewBox="0 0 2000 2000"><defs><style>.cls-1{fill:#fff;}</style></defs><path class="cls-1" d="M1552.45,826.15a366,366,0,0,0-133,24.85c-42-233.71-246.32-411-492.11-411-276.14,0-500,223.86-500,500a504.25,504.25,0,0,0,4.95,70.38,279.9,279.9,0,0,0-72.14-9.44c-154.41,0-279.58,125.17-279.58,279.58s125.17,279.58,279.58,279.58c6.56,0,13-.3,19.49-.75a25.64,25.64,0,0,0,6.05.75H1526.91a25.78,25.78,0,0,0,5.31-.56c6.7.36,13.44.56,20.23.56,202.66,0,367-164.29,367-367S1755.11,826.15,1552.45,826.15ZM954.53,1177.43c-192.4,0-348.37-156-348.37-348.37s156-348.36,348.37-348.36,348.36,156,348.36,348.36S1146.92,1177.43,954.53,1177.43Z"/><path class="cls-1" d="M1112.28,797.56,887.72,667.91c-24.25-14-54.57,3.5-54.57,31.5v259.3c0,28,30.32,45.51,54.57,31.51l224.56-129.65C1136.53,846.57,1136.53,811.56,1112.28,797.56Z"/></svg>