<svg id="Layer_1" data-name="Layer 1" xmlns="http://www.w3.org/2000/svg" viewBox="0 0 2000 20"><defs><style>.cls-1{fill:#1200df;}</style></defs><polyline class="cls-1" points="0 0 30.3 20 60.6 0 90.9 20 121.2 0 151.5 20 181.8 0 212.1 20 242.4 0 272.7 20 303 0 333.3 20 363.6 0 393.9 20 424.2 0 454.51 20 484.81 0 515.11 20 545.41 0 575.71 20 606.01 0 636.32 20 666.62 0 696.92 20 727.22 0 757.53 20 787.83 0 818.13 20 848.43 0 878.74 20 909.04 0 939.34 20 969.64 0 999.95 20 1030.25 0 1060.55 20 1090.86 0 1121.16 20 1151.46 0 1181.77 20 1212.07 0 1242.37 20 1272.67 0 1302.97 20 1333.27 0 1363.58 20 1393.88 0 1424.18 20 1454.48 0 1484.78 20 1515.09 0 1545.39 20 1575.7 0 1606 20 1636.31 0 1666.61 20 1696.92 0 1727.23 20 1757.53 0 1787.83 20 1818.13 0 1848.44 20 1878.75 0 1909.06 20 1939.37 0 1969.69 20 2000 0"/></svg>